HIERARCHY
ROOT ui
{
	 OFFSET 0 0 0
	 CHANNELS 3 XPosition YPosition Z Position
	 EndSite
	 {
	 OFFSET 0 -1 0
	 }
}
ROOT li
{
	 OFFSET 0 0 0
	 CHANNELS 3 XPosition YPosition Z Position
	 EndSite
	 {
	 OFFSET 0 -1 0
	 }
}
ROOT ul
{
	 OFFSET 0 0 0
	 CHANNELS 3 XPosition YPosition Z Position
	 EndSite
	 {
	 OFFSET 0 -1 0
	 }
}
ROOT ll
{
	 OFFSET 0 0 0
	 CHANNELS 3 XPosition YPosition Z Position
	 EndSite
	 {
	 OFFSET 0 -1 0
	 }
}
ROOT tt
{
	 OFFSET 0 0 0
	 CHANNELS 3 XPosition YPosition Z Position
	 EndSite
	 {
	 OFFSET 0 -1 0
	 }
}
ROOT tb
{
	 OFFSET 0 0 0
	 CHANNELS 3 XPosition YPosition Z Position
	 EndSite
	 {
	 OFFSET 0 -1 0
	 }
}
ROOT td
{
	 OFFSET 0 0 0
	 CHANNELS 3 XPosition YPosition Z Position
	 EndSite
	 {
	 OFFSET 0 -1 0
	 }
}
ROOT v
{
	 OFFSET 0 0 0
	 CHANNELS 3 XPosition YPosition Z Position
	 EndSite
	 {
	 OFFSET 0 -1 0
	 }
}
ROOT bn
{
	 OFFSET 0 0 0
	 CHANNELS 3 XPosition YPosition Z Position
	 EndSite
	 {
	 OFFSET 0 -1 0
	 }
}
MOTION
Frames: 10
Frame Time: 0.002
-0.019192581176757813	-0.004559700965881348	0		0.5291944580078125	-2.371430419921875	0		-1.04680224609375	0.1594049835205078	0		-0.45861111450195313	-2.34481787109375	0		1.790248779296875	-0.5353541870117188	0		3.3981083984375	-0.21435890197753907	0		4.573501953125	-0.05959982681274414	0		5.97321044921875	0.4459917907714844	0		-0.3662308349609375	5.84268798828125	0		
0.006845266819000244	-0.004884425163269043	0		0.5601998291015625	-2.369810302734375	0		-1.0286295166015624	0.17417120361328126	0		-0.48551556396484374	-2.332670654296875	0		1.78724169921875	-0.5394633178710937	0		3.416098388671875	-0.21968536376953124	0		4.57457470703125	-0.05580278778076172	0		5.97686669921875	0.4628275146484375	0		-0.31692239379882814	5.8591689453125	0		
-0.017046237945556642	0.007228342056274414	0		0.56217626953125	-2.366937255859375	0		-0.9796337890625	0.17266778564453125	0		-0.4554692687988281	-2.32202001953125	0		1.8062227783203124	-0.5407660522460938	0		3.418069580078125	-0.22287503051757812	0		4.59252294921875	-0.0621580810546875	0		5.98108544921875	0.4450399475097656	0		-0.3197641296386719	5.86210498046875	0		
0.0018556569814682008	-3.2733000814914705E-5	0		0.5829974365234375	-2.37722900390625	0		-0.9856217651367187	0.17764785766601562	0		-0.49153948974609374	-2.319788330078125	0		1.779114013671875	-0.547664794921875	0		3.3999853515625	-0.2278897705078125	0		4.5884326171875	-0.06832260131835938	0		5.97193798828125	0.486353515625	0		-0.2997107849121094	5.85684228515625	0		
-0.024218467712402342	1.0410699993371963E-4	0		0.555893798828125	-2.37409716796875	0		-0.9647111206054687	0.17539407348632813	0		-0.4207160034179688	-2.325494140625	0		1.8058751220703124	-0.5650359497070313	0		3.42585107421875	-0.23429063415527343	0		4.61428466796875	-0.07675137329101563	0		5.96826220703125	0.47045632934570314	0		-0.32059442138671873	5.86294189453125	0		
0.001668105959892273	-2.1396900713443757E-4	0		0.5536976318359375	-2.377181884765625	0		-1.0327459716796874	0.18392855834960936	0		-0.489820068359375	-2.3179638671875	0		1.776653076171875	-0.5759120483398438	0		3.41567138671875	-0.24137387084960937	0		4.61403759765625	-0.0919513168334961	0		5.968876953125	0.46484622192382813	0		-0.3546080322265625	5.8581611328125	0		
0.0015225000381469728	-2.9977399110794065E-4	0		0.566466064453125	-2.380396240234375	0		-0.9858180541992188	0.19145181274414064	0		-0.4390782470703125	-2.32448876953125	0		1.829402587890625	-0.5865108032226563	0		3.440572021484375	-0.235765869140625	0		4.6230048828125	-0.07923158264160156	0		5.9759052734375	0.46428732299804687	0		-0.30447763061523436	5.872640625	0		
0.00537544298171997	0.0025822739601135255	0		0.5573037109375	-2.372413330078125	0		-1.01491455078125	0.19965174865722657	0		-0.4811668701171875	-2.308187744140625	0		1.8201080322265626	-0.5985589599609376	0		3.441197021484375	-0.2579432678222656	0		4.62370458984375	-0.09343922424316406	0		5.97157763671875	0.4847329406738281	0		-0.28553878784179687	5.8683974609375	0		
0.001152501940727234	-4.6079498529434204E-4	0		0.5550280151367187	-2.374488525390625	0		-0.9381088256835938	0.19891351318359374	0		-0.410470458984375	-2.313885986328125	0		1.840681396484375	-0.6228709106445313	0		3.499973876953125	-0.2606365661621094	0		4.64943359375	-0.10186899566650391	0		5.97856982421875	0.48417333984375	0		-0.2855831604003906	5.868326171875	0		
9.374489784240722E-4	-5.360000133514404E-4	0		0.5527225952148438	-2.377560546875	0		-1.0112799072265626	0.2035155334472656	0		-0.4796822814941406	-2.306333984375	0		1.8193343505859374	-0.6358073120117187	0		3.457735595703125	-0.2624302978515625	0		4.6492158203125	-0.10206886291503907	0		5.9676611328125	0.468426513671875	0		-0.3357728271484375	5.8537060546875	0		
